<?xml version="1.0" encoding="UTF-8"?>
<svg version="1.1" xmlns="http://www.w3.org/2000/svg" width="256" height="256">
<path d="M0 0 C1.37643482 -0.00571835 2.75286491 -0.0126882 4.12928772 -0.02079773 C7.83201521 -0.03858551 11.53450386 -0.03758788 15.23726106 -0.03185534 C18.34561188 -0.02874164 21.45391826 -0.03488017 24.56226271 -0.04089409 C31.90515365 -0.05489132 39.24792813 -0.05341904 46.59082031 -0.04199219 C54.12648862 -0.03052333 61.66180049 -0.04457675 69.19742185 -0.07138866 C75.70317749 -0.09365618 82.20882216 -0.10015811 88.71461314 -0.09431225 C92.58435815 -0.0909668 96.45387502 -0.09319444 100.32358742 -0.11056328 C103.96739731 -0.12620748 107.61068596 -0.12188729 111.25447655 -0.10325813 C113.20168281 -0.09790711 115.14891349 -0.11195337 117.09606934 -0.12695312 C134.17204855 0.01320981 149.05412909 5.18908554 161.55541992 17.05639648 C174.95712906 30.82464809 179.31943731 46.71000498 179.22875977 65.61108398 C179.23283619 66.99238497 179.23818402 68.37368269 179.24468994 69.75497437 C179.25824233 73.46991005 179.25311552 77.18459281 179.24355268 80.89953232 C179.2358928 84.80965547 179.2430191 88.7197587 179.24771118 92.62988281 C179.25315048 99.19299153 179.24602535 105.75599856 179.23168945 112.3190918 C179.21536643 119.87862581 179.22065624 127.43791697 179.23716867 134.99744511 C179.25083588 141.51843609 179.25267775 148.03935449 179.24485266 154.56035519 C179.24020477 158.44169526 179.23947097 162.32292164 179.24946213 166.20425415 C179.25820626 169.85537561 179.25197609 173.50618769 179.23477936 177.15727615 C179.22899952 179.11578206 179.23776604 181.0743145 179.24716187 183.0328064 C179.12799431 199.85202965 174.00150746 215.0500521 162.13354492 227.23608398 C156.2459232 232.80274507 150.21324439 236.94453637 143.02807617 240.65405273 C142.4008667 240.98356934 141.77365723 241.31308594 141.12744141 241.65258789 C131.02817513 246.64413525 120.73851089 247.85105349 109.59912109 247.80810547 C108.33399185 247.81496872 107.06886261 247.82183197 105.76539612 247.8289032 C102.33124954 247.84667239 98.89736073 247.84569694 95.46318221 247.83996081 C92.57850966 247.83684426 89.69388488 247.84298874 86.80921918 247.84899956 C79.99370239 247.86299077 73.17831109 247.86152968 66.36279297 247.85009766 C59.37242989 247.83863017 52.38245112 247.8526812 45.39213866 247.87949413 C39.35346852 247.90177464 33.31491791 247.90826069 27.27620965 247.90241772 C23.6859146 247.89907522 20.09586549 247.90127948 16.5056057 247.91866875 C-12.19887669 248.04459416 -12.19887669 248.04459416 -24.15942383 243.40405273 C-25.30815979 242.96160721 -25.30815979 242.96160721 -26.48010254 242.51022339 C-42.97444262 235.42955583 -54.64733153 222.54617673 -62.11645508 206.43530273 C-65.18321815 197.52216361 -65.45229381 188.78203982 -65.43408203 179.42407227 C-65.43843861 178.0430677 -65.44362488 176.66206554 -65.4495697 175.28106689 C-65.46286944 171.55780395 -65.46354852 167.83464307 -65.4610064 164.11136103 C-65.45993052 160.99040992 -65.46483576 157.86947894 -65.46961182 154.74853218 C-65.48067583 147.37897007 -65.48116199 140.00945895 -65.47509766 132.63989258 C-65.46906024 125.06564172 -65.48137009 117.49157673 -65.50266773 109.91735756 C-65.52034486 103.38792342 -65.52627549 96.85854811 -65.52302998 90.32909095 C-65.52122668 86.44100307 -65.52375719 82.5530478 -65.53774452 78.66498184 C-65.55041833 75.00569612 -65.54828974 71.34669793 -65.53533363 67.68741608 C-65.53188122 65.72410821 -65.54307501 63.76079115 -65.55490112 61.79751587 C-65.45624981 44.96461397 -60.32302112 29.79517494 -48.47192383 17.58374023 C-34.48982391 4.40466632 -18.98872701 -0.06778276 0 0 Z " fill="#F6F2F6" transform="translate(71.159423828125,2.595947265625)"/>
<path d="M0 0 C1.37643482 -0.00571835 2.75286491 -0.0126882 4.12928772 -0.02079773 C7.83201521 -0.03858551 11.53450386 -0.03758788 15.23726106 -0.03185534 C18.34561188 -0.02874164 21.45391826 -0.03488017 24.56226271 -0.04089409 C31.90515365 -0.05489132 39.24792813 -0.05341904 46.59082031 -0.04199219 C54.12648862 -0.03052333 61.66180049 -0.04457675 69.19742185 -0.07138866 C75.70317749 -0.09365618 82.20882216 -0.10015811 88.71461314 -0.09431225 C92.58435815 -0.0909668 96.45387502 -0.09319444 100.32358742 -0.11056328 C103.96739731 -0.12620748 107.61068596 -0.12188729 111.25447655 -0.10325813 C113.20168281 -0.09790711 115.14891349 -0.11195337 117.09606934 -0.12695312 C134.17204855 0.01320981 149.05412909 5.18908554 161.55541992 17.05639648 C174.95712906 30.82464809 179.31943731 46.71000498 179.22875977 65.61108398 C179.23283619 66.99238497 179.23818402 68.37368269 179.24468994 69.75497437 C179.25824233 73.46991005 179.25311552 77.18459281 179.24355268 80.89953232 C179.2358928 84.80965547 179.2430191 88.7197587 179.24771118 92.62988281 C179.25315048 99.19299153 179.24602535 105.75599856 179.23168945 112.3190918 C179.21536643 119.87862581 179.22065624 127.43791697 179.23716867 134.99744511 C179.25083588 141.51843609 179.25267775 148.03935449 179.24485266 154.56035519 C179.24020477 158.44169526 179.23947097 162.32292164 179.24946213 166.20425415 C179.25820626 169.85537561 179.25197609 173.50618769 179.23477936 177.15727615 C179.22899952 179.11578206 179.23776604 181.0743145 179.24716187 183.0328064 C179.12799431 199.85202965 174.00150746 215.0500521 162.13354492 227.23608398 C156.2459232 232.80274507 150.21324439 236.94453637 143.02807617 240.65405273 C142.4008667 240.98356934 141.77365723 241.31308594 141.12744141 241.65258789 C131.02817513 246.64413525 120.73851089 247.85105349 109.59912109 247.80810547 C108.33399185 247.81496872 107.06886261 247.82183197 105.76539612 247.8289032 C102.33124954 247.84667239 98.89736073 247.84569694 95.46318221 247.83996081 C92.57850966 247.83684426 89.69388488 247.84298874 86.80921918 247.84899956 C79.99370239 247.86299077 73.17831109 247.86152968 66.36279297 247.85009766 C59.37242989 247.83863017 52.38245112 247.8526812 45.39213866 247.87949413 C39.35346852 247.90177464 33.31491791 247.90826069 27.27620965 247.90241772 C23.6859146 247.89907522 20.09586549 247.90127948 16.5056057 247.91866875 C-12.19887669 248.04459416 -12.19887669 248.04459416 -24.15942383 243.40405273 C-25.30815979 242.96160721 -25.30815979 242.96160721 -26.48010254 242.51022339 C-42.97444262 235.42955583 -54.64733153 222.54617673 -62.11645508 206.43530273 C-65.18321815 197.52216361 -65.45229381 188.78203982 -65.43408203 179.42407227 C-65.43843861 178.0430677 -65.44362488 176.66206554 -65.4495697 175.28106689 C-65.46286944 171.55780395 -65.46354852 167.83464307 -65.4610064 164.11136103 C-65.45993052 160.99040992 -65.46483576 157.86947894 -65.46961182 154.74853218 C-65.48067583 147.37897007 -65.48116199 140.00945895 -65.47509766 132.63989258 C-65.46906024 125.06564172 -65.48137009 117.49157673 -65.50266773 109.91735756 C-65.52034486 103.38792342 -65.52627549 96.85854811 -65.52302998 90.32909095 C-65.52122668 86.44100307 -65.52375719 82.5530478 -65.53774452 78.66498184 C-65.55041833 75.00569612 -65.54828974 71.34669793 -65.53533363 67.68741608 C-65.53188122 65.72410821 -65.54307501 63.76079115 -65.55490112 61.79751587 C-65.45624981 44.96461397 -60.32302112 29.79517494 -48.47192383 17.58374023 C-34.48982391 4.40466632 -18.98872701 -0.06778276 0 0 Z M-44.15942383 27.40405273 C-54.26272341 40.87511884 -57.46955764 53.66041743 -57.43408203 70.2824707 C-57.43919296 71.53261963 -57.44430389 72.78276855 -57.4495697 74.07080078 C-57.46102092 77.47181338 -57.46355014 80.87258083 -57.4610064 84.27359533 C-57.45992954 87.12613174 -57.46483823 89.97864618 -57.46961182 92.83117783 C-57.48067099 99.56788885 -57.48116476 106.30454409 -57.47509766 113.04125977 C-57.46906085 119.9611386 -57.4813696 126.88081396 -57.50266773 133.80065811 C-57.5203548 139.76958845 -57.52627394 145.73845444 -57.52302998 151.70740998 C-57.52122823 155.26015463 -57.52374128 158.8127541 -57.53774452 162.3654747 C-57.55279923 166.33267778 -57.5432909 170.29962698 -57.53173828 174.2668457 C-57.53938202 175.42358795 -57.54702576 176.5803302 -57.55490112 177.77212524 C-57.44605071 194.77842003 -51.70161785 209.79576761 -39.75317383 222.06811523 C-29.76036366 231.06766415 -16.02659724 236.50184173 -2.58334351 236.54449463 C-1.49859741 236.55020477 -0.41385132 236.55591492 0.70376587 236.5617981 C2.46652359 236.56347488 2.46652359 236.56347488 4.26489258 236.56518555 C5.5144574 236.57015045 6.76402222 236.57511536 8.05145264 236.58023071 C11.46916506 236.59230669 14.88681656 236.59978926 18.30454302 236.60424137 C20.44511073 236.60718182 22.5856732 236.61128848 24.72623825 236.61574554 C31.4388853 236.62940793 38.15152023 236.63907994 44.86418021 236.64294744 C52.58412641 236.64742101 60.30389493 236.66494149 68.02378714 236.69394803 C74.00961238 236.71564948 79.99538796 236.72565626 85.98125207 236.72698855 C89.54748345 236.72803083 93.11354753 236.7338138 96.67973709 236.75180817 C100.66656305 236.77153464 104.65302296 236.76696641 108.63989258 236.76049805 C110.38443222 236.77432022 110.38443222 236.77432022 112.16421509 236.78842163 C128.52782392 236.70570008 143.80042567 231.35203487 155.66088867 219.84155273 C164.9935566 209.40502086 170.9362994 195.90951264 170.98101807 181.83470154 C170.98672821 180.7514006 170.99243835 179.66809967 170.99832153 178.55197144 C170.99943939 177.37837067 171.00055725 176.2047699 171.00170898 174.99560547 C171.00667389 173.74764694 171.01163879 172.49968842 171.01675415 171.21391296 C171.02883067 167.80026547 171.03631303 164.386679 171.04076481 160.97301745 C171.04370556 158.83445206 171.04781232 156.69589191 171.05226898 154.55732918 C171.06593252 147.84948549 171.07560357 141.14165393 171.07947087 134.4337973 C171.08394258 126.72235104 171.10145387 119.01108283 171.13047147 111.29969066 C171.15218559 105.31894529 171.16218039 99.33824964 171.16351199 93.35746533 C171.16455351 89.79511433 171.17031979 86.23293093 171.1883316 82.67062187 C171.20808551 78.68639451 171.20348488 74.70253292 171.19702148 70.71826172 C171.21084366 68.97911499 171.21084366 68.97911499 171.22494507 67.20483398 C171.13923852 50.22959105 166.11002345 36.00180703 154.29370117 23.62280273 C141.04025264 11.63560725 126.35321342 8.09227768 108.9621582 8.12939453 C107.71200928 8.1242836 106.46186035 8.11917267 105.17382812 8.11390686 C101.77281553 8.10245564 98.37204807 8.09992642 94.97103357 8.10247016 C92.11849717 8.10354703 89.26598273 8.09863833 86.41345108 8.09386474 C79.67674006 8.08280557 72.94008482 8.0823118 66.20336914 8.08837891 C59.2834903 8.09441571 52.36381494 8.08210696 45.4439708 8.06080884 C39.47504046 8.04312176 33.50617447 8.03720262 27.53721893 8.04044658 C23.98447428 8.04224834 20.43187481 8.03973528 16.87915421 8.02573204 C12.91195112 8.01067733 8.94500192 8.02018566 4.9777832 8.03173828 C3.82104095 8.02409454 2.66429871 8.01645081 1.47250366 8.00857544 C-15.91124113 8.11984176 -32.42790377 14.22445596 -44.15942383 27.40405273 Z " fill="#101310" transform="translate(71.159423828125,2.595947265625)"/>
<path d="M0 0 C6.07077179 4.05094251 9.26757364 9.90037716 11.5390625 16.71484375 C11.63480094 18.40574818 11.6744379 20.10010093 11.6809082 21.79370117 C11.69145988 23.34627876 11.69145988 23.34627876 11.70222473 24.93022156 C11.70638901 26.04895157 11.71055328 27.16768158 11.71484375 28.3203125 C11.73804768 30.68946195 11.76216525 33.0586026 11.78710938 35.42773438 C11.82217946 39.16257571 11.8515436 42.89709435 11.86499023 46.63208008 C11.88050865 50.23688911 11.92075134 53.84075424 11.96484375 57.4453125 C11.96293533 58.55392136 11.96102692 59.66253021 11.95906067 60.80473328 C12.08033603 68.53247315 13.3064898 73.81346291 18.3515625 79.90234375 C19.5390625 81.71484375 19.5390625 81.71484375 19.4140625 84.0390625 C18.26552696 87.5513252 16.52379407 88.95625843 13.7265625 91.33984375 C12.85386719 92.09523438 11.98117188 92.850625 11.08203125 93.62890625 C9.82326172 94.66144531 9.82326172 94.66144531 8.5390625 95.71484375 C7.54326172 96.59269531 7.54326172 96.59269531 6.52734375 97.48828125 C3.93413007 99.08802407 2.53709445 99.22385541 -0.4609375 98.71484375 C-2.59375 97.0703125 -2.59375 97.0703125 -4.5859375 94.90234375 C-5.24851563 94.19464844 -5.91109375 93.48695313 -6.59375 92.7578125 C-7.51800781 91.74654297 -7.51800781 91.74654297 -8.4609375 90.71484375 C-9.45534792 89.70928524 -10.45314363 88.70698865 -11.4609375 87.71484375 C-11.89921875 88.16214844 -12.3375 88.60945313 -12.7890625 89.0703125 C-21.52005279 97.39314674 -30.56133874 100.40732807 -42.43847656 100.17041016 C-49.75367242 99.83005266 -55.46997678 98.39697522 -61.078125 93.37109375 C-68.16430853 84.88368749 -69.15971345 75.34622076 -68.4609375 64.71484375 C-66.53705068 55.15199456 -61.20534046 48.42564449 -53.4609375 42.71484375 C-42.61596551 35.79345919 -27.00048117 35.34727291 -14.4609375 34.71484375 C-14.57537353 32.63090345 -14.70289297 30.54767882 -14.8359375 28.46484375 C-14.94035156 26.72460938 -14.94035156 26.72460938 -15.046875 24.94921875 C-15.42847891 21.96838822 -15.80791324 20.18580043 -17.4609375 17.71484375 C-21.86582014 14.84654807 -25.25013208 14.15654317 -30.4609375 14.71484375 C-37.55536458 17.3578656 -40.36647301 22.06174511 -43.4609375 28.71484375 C-62.82986954 27.34591171 -62.82986954 27.34591171 -65.4609375 24.71484375 C-65.4609375 16.68721448 -62.05482862 10.31559344 -56.4140625 4.6640625 C-41.05687828 -8.05190387 -17.46123862 -9.11864684 0 0 Z " fill="#221E1A" transform="translate(152.4609375,63.28515625)"/>
<path d="M0 0 C4.6115719 -0.24068747 8.51471527 -0.20187351 12.2109375 2.7890625 C13.66164687 4.35841724 15.10523733 5.93437223 16.54296875 7.515625 C29.80016641 20.92035904 46.59504319 22.4111057 64.44007683 22.54694653 C67.85399162 22.55885756 71.26767551 22.55006099 74.68157578 22.53730202 C78.2939951 22.52704242 81.90637753 22.53660308 85.51879883 22.54284668 C91.58064175 22.55008595 97.64228855 22.54063408 103.70410156 22.52148438 C110.67238874 22.49972267 117.64020746 22.50677671 124.60848331 22.52879 C130.63448828 22.54705107 136.66035377 22.54945052 142.68637753 22.53903532 C146.26655164 22.53285867 149.84650696 22.53180093 153.42666626 22.54518127 C178.44567753 22.6258614 195.36484192 20.91842123 214 3 C214.66 2.34 215.32 1.68 216 1 C218.3828125 0.8046875 218.3828125 0.8046875 221.125 0.875 C222.03507813 0.89304688 222.94515625 0.91109375 223.8828125 0.9296875 C224.58148438 0.95289063 225.28015625 0.97609375 226 1 C223.83774386 14.93453957 216.56855175 27.33847349 205.4375 35.9921875 C195.53100239 42.70211176 184.46160639 47.10224859 172.42391968 47.14044189 C170.79680054 47.14900711 170.79680054 47.14900711 169.1368103 47.15774536 C167.96163849 47.15886322 166.78646667 47.15998108 165.57568359 47.16113281 C163.70133636 47.16858017 163.70133636 47.16858017 161.78912354 47.17617798 C158.37141111 47.18825396 154.95375961 47.19573653 151.53603315 47.20018864 C149.39546544 47.20312908 147.25490297 47.20723575 145.11433792 47.21169281 C138.40169088 47.2253552 131.68905594 47.23502721 124.97639596 47.2388947 C117.25644976 47.24336828 109.53668125 47.26088876 101.81678903 47.2898953 C95.83096379 47.31159674 89.84518822 47.32160352 83.8593241 47.32293582 C80.29309272 47.32397809 76.72702865 47.32976107 73.16083908 47.34775543 C69.17401312 47.3674819 65.18755321 47.36291368 61.20068359 47.35644531 C60.03765717 47.3656601 58.87463074 47.37487488 57.67636108 47.3843689 C41.31275226 47.30164735 26.04015051 41.94798213 14.1796875 30.4375 C7.00532452 22.41455645 0 11.01655385 0 0 Z " fill="#E6E4E6" transform="translate(15,192)"/>
<path d="M0 0 C1.25014893 -0.00511093 2.50029785 -0.01022186 3.78833008 -0.01548767 C7.18934268 -0.02693889 10.59011013 -0.02946811 13.99112463 -0.02692437 C16.84366104 -0.0258475 19.69617547 -0.0307562 22.54870713 -0.03552979 C29.28541814 -0.04658896 36.02207338 -0.04708273 42.75878906 -0.04101562 C49.6786679 -0.03497882 56.59834326 -0.04728757 63.5181874 -0.06858569 C69.48711775 -0.08627277 75.45598373 -0.09219191 81.42493927 -0.08894795 C84.97768392 -0.08714619 88.5302834 -0.08965925 92.083004 -0.10366249 C96.05020708 -0.1187172 100.01715628 -0.10920887 103.984375 -0.09765625 C105.14111725 -0.10529999 106.2978595 -0.11294373 107.48965454 -0.12081909 C124.07441517 -0.01466675 139.0261568 5.43495127 151.05517578 17.06762695 C158.12158203 24.61492285 158.12158203 24.61492285 158.12158203 30.2746582 C135.09123745 31.06702152 135.09123745 31.06702152 125.12158203 26.2746582 C121.86878346 25.26350528 118.88672803 25.1420496 115.48902893 25.12748718 C114.34116409 25.12033188 113.19329926 25.11317657 112.01065063 25.10580444 C110.12725479 25.10177109 110.12725479 25.10177109 108.20581055 25.09765625 C106.86672287 25.09138773 105.52763692 25.08474059 104.18855286 25.07774353 C99.79254357 25.05673441 95.39653409 25.04633922 91.00048828 25.03637695 C89.48271098 25.03232723 87.96493385 25.02821024 86.44715691 25.02402687 C79.31002499 25.00497651 72.17290337 24.99074915 65.03575093 24.9824149 C56.82277534 24.97266415 48.61007082 24.94640089 40.39719063 24.90591401 C34.03432455 24.87563471 27.6715356 24.86093461 21.30859894 24.85763389 C17.51589315 24.85529545 13.72347694 24.84649503 9.93084908 24.82117271 C6.35449579 24.79768116 2.77861836 24.79374194 -0.79779243 24.8039341 C-2.71447998 24.80465601 -4.63114451 24.78571073 -6.54772949 24.76586914 C-15.44741085 24.81854173 -23.84013939 26.25551891 -31.87841797 30.2746582 C-33.54587857 30.35891914 -35.21666984 30.38190963 -36.88623047 30.37231445 C-37.87236328 30.3690918 -38.85849609 30.36586914 -39.87451172 30.36254883 C-40.90705078 30.35416992 -41.93958984 30.34579102 -43.00341797 30.3371582 C-44.56382813 30.33039062 -44.56382813 30.33039062 -46.15576172 30.32348633 C-48.73003759 30.31167772 -51.30419943 30.29520895 -53.87841797 30.2746582 C-52.31812714 21.6438283 -45.95288975 15.18630201 -38.87841797 10.2746582 C-36.30106978 8.7395359 -33.67151015 7.33264683 -31.00341797 5.9621582 C-30.3558252 5.62442383 -29.70823242 5.28668945 -29.04101562 4.9387207 C-19.72394229 0.36921539 -10.2269414 -0.02182684 0 0 Z " fill="#FDFAFD" transform="translate(75.87841796875,10.725341796875)"/>
<path d="M0 0 C1.07793168 2.09785806 2.07579888 4.18447439 2.97265625 6.3671875 C5.89790568 13.09840661 9.37084187 16.78622209 16 20 C24.15358781 22.88511569 35.64068353 22.02326504 43.5625 18.9375 C48.78336633 16.43148416 52.96014595 13.12302751 57 9 C57.70125 9.70125 58.4025 10.4025 59.125 11.125 C59.80949219 11.79982422 59.80949219 11.79982422 60.5078125 12.48828125 C61.52896716 13.52280181 62.52300024 14.58461022 63.4921875 15.66796875 C63.98976563 16.21066406 64.48734375 16.75335938 65 17.3125 C65.680625 18.08013672 65.680625 18.08013672 66.375 18.86328125 C68.77057588 20.53903265 70.1334029 20.48131571 73 20 C75.63018983 18.11751368 75.63018983 18.11751368 78.0625 15.625 C80.91797617 12.85312021 83.3087001 10.55153945 87 9 C88.32286246 13.96073422 88.08893197 18.91111512 88 24 C88.49886719 23.71125 88.99773437 23.4225 89.51171875 23.125 C96.20335323 19.66505255 102.5376974 19.11113847 110 20 C113 22 113 22 113.46875 24.03125 C113.57225702 32.20830469 111.04101391 38.35078331 105.8125 44.625 C104 46 104 46 102 46 C102.20496094 45.29875 102.40992188 44.5975 102.62109375 43.875 C102.89050781 42.92625 103.15992188 41.9775 103.4375 41 C103.70433594 40.071875 103.97117188 39.14375 104.24609375 38.1875 C105.12838541 34.45718913 105.57724251 30.80892183 106 27 C92.39456349 25.42465292 92.39456349 25.42465292 80.30175781 30.57666016 C78.07810588 32.61629054 75.99124333 34.73354417 74 37 C79.64465327 36.23147913 84.79289159 34.53951286 90.16601562 32.72851562 C93.88718453 31.51639698 97.07705334 30.70176429 101 31 C100.8828125 32.75390625 100.8828125 32.75390625 100 35 C97.9603168 36.52219681 96.09007821 37.72849334 93.875 38.9375 C93.24899902 39.28449951 92.62299805 39.63149902 91.97802734 39.98901367 C68.32679872 52.64439241 38.62419113 54.80975963 12.96728516 47.4140625 C-0.20497559 43.33100822 -15.35576654 36.08854773 -25 26 C-25 25.01 -25 24.02 -25 23 C-20.7739349 24.29314926 -16.86949211 25.94438144 -12.88232422 27.81835938 C-3.76684624 32.08526276 5.15701025 34.9616697 15 37 C14.49210937 36.75507813 13.98421875 36.51015625 13.4609375 36.2578125 C6.89039706 32.68954148 2.60960439 27.36001046 0.43554688 20.12036133 C-0.01911014 17.90696663 -0.11378183 15.92945599 -0.09765625 13.671875 C-0.09443359 12.87265625 -0.09121094 12.0734375 -0.08789062 11.25 C-0.07951172 10.425 -0.07113281 9.6 -0.0625 8.75 C-0.05798828 7.90953125 -0.05347656 7.0690625 -0.04882812 6.203125 C-0.03707961 4.13538599 -0.01914522 2.06768376 0 0 Z " fill="#EDE9EC" transform="translate(84,141)"/>
<path d="M0 0 C0.33 0.33 0.66 0.66 1 1 C0.58206063 6.85115124 -0.41714079 12.67975153 -3 18 C-3.99 18.66 -4.98 19.32 -6 20 C-5.505 22.475 -5.505 22.475 -5 25 C-29.79944925 40.26716094 -57.37983829 46.42623583 -86.24609375 40.03125 C-103.41939876 35.31350544 -119.39777799 27.81427863 -132 15 C-131.34 14.01 -130.68 13.02 -130 12 C-130.66 10.68 -131.32 9.36 -132 8 C-131.34 7.67 -130.68 7.34 -130 7 C-130.66 5.68 -131.32 4.36 -132 3 C-131.34 2.67 -130.68 2.34 -130 2 C-124.97304643 3.82410087 -120.91594631 6.2686513 -116.5 9.3125 C-95.20085586 23.46010669 -67.48820478 27.5432308 -42.5 22.8125 C-29.33115141 19.91019969 -17.28151015 15.52100677 -6 8 C-5.67 7.01 -5.34 6.02 -5 5 C-5.59949463 5.176521 -6.19898926 5.35304199 -6.81665039 5.53491211 C-9.56383365 6.34075606 -12.31312256 7.13917579 -15.0625 7.9375 C-16.00544922 8.21529297 -16.94839844 8.49308594 -17.91992188 8.77929688 C-22.94955302 10.23385919 -27.79290445 11.42945832 -33 12 C-31.87513147 10.83997933 -30.73893439 9.68995005 -29.56640625 8.578125 C-27.94464099 7.01806161 -27.94464099 7.01806161 -26.58984375 5.109375 C-20.09640559 -2.44327648 -9.17384404 -1.13060101 0 0 Z " fill="#EDE9EC" transform="translate(190,167)"/>
<path d="M0 0 C58.08 0 116.16 0 176 0 C172.40881825 2.69338631 169.75337606 4.05640956 165.625 5.625 C164.52414063 6.05039063 163.42328125 6.47578125 162.2890625 6.9140625 C157.3355508 8.54954499 152.62555797 9.12393808 147.42391968 9.14044189 C145.79680054 9.14900711 145.79680054 9.14900711 144.1368103 9.15774536 C142.96163849 9.15886322 141.78646667 9.15998108 140.57568359 9.16113281 C138.70133636 9.16858017 138.70133636 9.16858017 136.78912354 9.17617798 C133.37141111 9.18825396 129.95375961 9.19573653 126.53603315 9.20018864 C124.39546544 9.20312908 122.25490297 9.20723575 120.11433792 9.21169281 C113.40169088 9.2253552 106.68905594 9.23502721 99.97639596 9.2388947 C92.25644976 9.24336828 84.53668125 9.26088876 76.81678903 9.2898953 C70.83096379 9.31159674 64.84518822 9.32160352 58.8593241 9.32293582 C55.29309272 9.32397809 51.72702865 9.32976107 48.16083908 9.34775543 C44.17401312 9.3674819 40.18755321 9.36291368 36.20068359 9.35644531 C35.03765717 9.3656601 33.87463074 9.37487488 32.67636108 9.3843689 C22.84200591 9.33465412 13.64729581 7.64407822 4.75 3.3125 C3.83734375 2.87550781 2.9246875 2.43851563 1.984375 1.98828125 C1.32953125 1.66214844 0.6746875 1.33601562 0 1 C0 0.67 0 0.34 0 0 Z " fill="#DADADA" transform="translate(40,230)"/>
<path d="M0 0 C4.6115719 -0.24068747 8.51471527 -0.20187351 12.2109375 2.7890625 C13.66164687 4.35841724 15.10523733 5.93437223 16.54296875 7.515625 C29.80016641 20.92035904 46.59504319 22.4111057 64.44007683 22.54694653 C67.85399162 22.55885756 71.26767551 22.55006099 74.68157578 22.53730202 C78.2939951 22.52704242 81.90637753 22.53660308 85.51879883 22.54284668 C91.58064175 22.55008595 97.64228855 22.54063408 103.70410156 22.52148438 C110.67238874 22.49972267 117.64020746 22.50677671 124.60848331 22.52879 C130.63448828 22.54705107 136.66035377 22.54945052 142.68637753 22.53903532 C146.26655164 22.53285867 149.84650696 22.53180093 153.42666626 22.54518127 C178.44567753 22.6258614 195.36484192 20.91842123 214 3 C214.66 2.34 215.32 1.68 216 1 C218.3828125 0.8046875 218.3828125 0.8046875 221.125 0.875 C222.03507813 0.89304688 222.94515625 0.91109375 223.8828125 0.9296875 C224.58148438 0.95289063 225.28015625 0.97609375 226 1 C224.82280701 8.58635484 221.63311526 19.36688474 216 25 C213.35852569 25.1199989 210.74238872 25.17454551 208.0995636 25.18754578 C207.26173078 25.19545586 206.42389797 25.20336594 205.56067628 25.21151572 C202.73097968 25.23673609 199.90128633 25.25454323 197.0715332 25.2722168 C195.05158758 25.28829274 193.03164436 25.30467245 191.01170349 25.32133484 C172.5586958 25.46607735 154.10500616 25.54108306 135.65154743 25.60025311 C122.00272677 25.64485631 108.35490874 25.72203624 94.70653659 25.84183758 C85.11925918 25.92316655 75.5322571 25.96637836 65.9446494 25.98155528 C60.21394478 25.99173654 54.48450193 26.01915038 48.75417519 26.08786583 C43.3619414 26.1518131 37.97160867 26.16869154 32.57905006 26.14937019 C30.5996484 26.15052534 28.62017152 26.16882964 26.64110947 26.205513 C11.66548027 26.46877795 11.66548027 26.46877795 7.51720238 22.81043434 C5.92446004 20.22267723 4.90056513 17.89278077 4 15 C3.27683594 13.39511719 3.27683594 13.39511719 2.5390625 11.7578125 C2.23742187 10.88898438 1.93578125 10.02015625 1.625 9.125 C1.14933594 7.79855469 1.14933594 7.79855469 0.6640625 6.4453125 C0 4 0 4 0 0 Z " fill="#EDEBED" transform="translate(15,192)"/>
<path d="M0 0 C4.17701117 1.27867689 8.02757191 2.90418697 11.96264648 4.76708984 C22.02226269 9.49388416 32.14478256 12.66798776 43 15 C43.83233154 15.18618896 44.66466309 15.37237793 45.5222168 15.56420898 C53.00956346 17.10216155 60.30840765 17.34797708 67.9375 17.3125 C69.21149658 17.30686035 70.48549316 17.3012207 71.7980957 17.29541016 C87.00189287 17.10185328 100.89100518 15.27338771 115.18041992 9.98193359 C118.91800827 8.60073608 121.99652035 7.64744308 126 8 C125.8828125 9.75390625 125.8828125 9.75390625 125 12 C122.9603168 13.52219681 121.09007821 14.72849334 118.875 15.9375 C118.24899902 16.28449951 117.62299805 16.63149902 116.97802734 16.98901367 C93.32679872 29.64439241 63.62419113 31.80975963 37.96728516 24.4140625 C24.79502441 20.33100822 9.64423346 13.08854773 0 3 C0 2.01 0 1.02 0 0 Z " fill="#FE9C07" transform="translate(59,164)"/>
<path d="M0 0 C1.07793168 2.09785806 2.07579888 4.18447439 2.97265625 6.3671875 C5.89790568 13.09840661 9.37084187 16.78622209 16 20 C24.15358781 22.88511569 35.64068353 22.02326504 43.5625 18.9375 C48.78336633 16.43148416 52.96014595 13.12302751 57 9 C57.70125 9.70125 58.4025 10.4025 59.125 11.125 C59.80949219 11.79982422 59.80949219 11.79982422 60.5078125 12.48828125 C61.52896716 13.52280181 62.52300024 14.58461022 63.4921875 15.66796875 C63.98976562 16.21066406 64.48734375 16.75335938 65 17.3125 C65.680625 18.08013672 65.680625 18.08013672 66.375 18.86328125 C68.77827804 20.54442046 70.12231959 20.48882311 73 20 C75.76704543 18.05366199 75.76704543 18.05366199 78.3125 15.5 C79.19550781 14.6646875 80.07851562 13.829375 80.98828125 12.96875 C81.98408203 11.99421875 81.98408203 11.99421875 83 11 C83.99 11.66 84.98 12.32 86 13 C86.625 16.1875 86.625 16.1875 86 20 C83.98864005 22.72227166 81.57201599 24.81689772 79 27 C78.46375 27.51175781 77.9275 28.02351563 77.375 28.55078125 C75.20926498 30.55295816 73.55650948 31.89856724 70.62109375 32.43359375 C66.86449707 31.81215972 65.62674913 29.98090362 63.1875 27.125 C62.39730469 26.22007812 61.60710937 25.31515625 60.79296875 24.3828125 C59 22 59 22 59 20 C58.21496094 20.61488281 57.42992187 21.22976562 56.62109375 21.86328125 C45.02321513 30.83275068 35.92823089 34.10942044 21 33 C13.55735519 31.49314442 9.25437679 27.8119475 4.3984375 22.12109375 C3 20 3 20 3 17 C2.34 17 1.68 17 1 17 C0.1679418 11.27959989 -0.12036664 5.77759884 0 0 Z " fill="#D0D1D0" transform="translate(84,141)"/>
<path d="M0 0 C3.5975747 1.91520156 5.7013023 3.41682704 7.05859375 7.24609375 C7.25390625 10.48046875 7.25390625 10.48046875 7.18359375 13.99609375 C7.16554687 15.1665625 7.1475 16.33703125 7.12890625 17.54296875 C7.10570312 18.435 7.0825 19.32703125 7.05859375 20.24609375 C6.34840088 20.35679199 5.63820801 20.46749023 4.90649414 20.58154297 C1.64422256 21.09176235 -1.61733813 21.60639749 -4.87890625 22.12109375 C-5.99587891 22.29511719 -7.11285156 22.46914062 -8.26367188 22.6484375 C-13.23265693 23.4353149 -18.14606266 24.25355273 -23.0390625 25.4296875 C-27.52738887 26.36868671 -29.65325935 25.70100073 -33.94140625 24.24609375 C-36.93827306 23.7987284 -39.9222217 23.52478771 -42.94140625 23.24609375 C-43.27140625 18.95609375 -43.60140625 14.66609375 -43.94140625 10.24609375 C-42.72453125 10.55546875 -41.50765625 10.86484375 -40.25390625 11.18359375 C-34.21064404 12.54477581 -28.11194697 12.88368178 -21.94140625 13.24609375 C-21.72226563 12.72660156 -21.503125 12.20710938 -21.27734375 11.671875 C-18.91650484 6.47994878 -16.61869516 3.53014766 -11.94140625 0.24609375 C-7.84905342 -1.11802386 -4.12193147 -1.60066956 0 0 Z " fill="#DDDDDD" transform="translate(130.94140625,77.75390625)"/>
<path d="M0 0 C1.63001953 0.01353516 1.63001953 0.01353516 3.29296875 0.02734375 C4.12441406 0.03894531 4.95585937 0.05054687 5.8125 0.0625 C6.67150217 19.50935466 6.67150217 19.50935466 -0.8125 28.0625 C-4.76351767 31.38967277 -7.65344286 31.45106391 -12.703125 31.421875 C-15.1875 31.0625 -15.1875 31.0625 -18.25 28.6875 C-22.11990633 23.4444011 -21.76319604 18.42853008 -21.1875 12.0625 C-18.74400565 6.46282546 -14.46832601 3.78423989 -9.1875 1.0625 C-5.90230525 -0.03256492 -3.45086585 -0.03710608 0 0 Z " fill="#F3EFF3" transform="translate(132.1875,112.9375)"/>
<path d="M0 0 C1.90295456 2.85443184 2.92379965 5.30799906 4.125 8.5 C9.47377276 21.47195037 17.77951681 30.76112675 30.375 36.8125 C31.27520874 37.24804199 31.27520874 37.24804199 32.19360352 37.69238281 C41.43985012 41.87200703 50.86144079 42.29603693 60.87841797 42.2746582 C62.75364136 42.2823246 62.75364136 42.2823246 64.66674805 42.29014587 C68.06776065 42.30159709 71.4685281 42.30412632 74.8695426 42.30158257 C77.72207901 42.30050571 80.57459344 42.3054144 83.4271251 42.310188 C90.16383611 42.32124717 96.90049135 42.32174093 103.63720703 42.31567383 C110.55708587 42.30963703 117.47676123 42.32194577 124.39660537 42.3432439 C130.36553571 42.36093097 136.3344017 42.36685011 142.30335724 42.36360615 C145.85610189 42.3618044 149.40870137 42.36431746 152.96142197 42.37832069 C156.92862505 42.3933754 160.89557425 42.38386708 164.86279297 42.37231445 C166.59790634 42.38378006 166.59790634 42.38378006 168.36807251 42.39547729 C184.07516958 42.29494252 199.57065336 37.30403915 211.04296875 26.21484375 C217.88338607 18.47329361 221.65996098 9.68149558 225 0 C225.33 0.66 225.66 1.32 226 2 C226.66 2 227.32 2 228 2 C228 2.66 228 3.32 228 4 C227.34 4.66 226.68 5.32 226 6 C225.814375 7.299375 225.814375 7.299375 225.625 8.625 C224.83664251 12.88213046 223.05905589 16.22666037 221 20 C220.34 20 219.68 20 219 20 C218.938125 20.53625 218.87625 21.0725 218.8125 21.625 C217.01259645 26.88625653 212.01569668 31.301332 208 35 C207.01 35.33 206.02 35.66 205 36 C204.01 36.99 204.01 36.99 203 38 C200.55199284 39.08067763 198.11611966 40.09294491 195.625 41.0625 C194.95210937 41.33126953 194.27921875 41.60003906 193.5859375 41.87695312 C188.19262651 44.00561229 184.00155106 45.12308761 178.2088623 45.14717102 C177.02589569 45.15432632 175.84292908 45.16148163 174.62411499 45.16885376 C173.32954376 45.17154266 172.03497253 45.17423157 170.70117188 45.17700195 C169.32105337 45.18327015 167.94093654 45.18991726 166.56082153 45.19691467 C162.0301429 45.21792461 157.49946407 45.22831789 152.96875 45.23828125 C151.40513593 45.24233071 149.84152204 45.24644768 148.27790833 45.25063133 C140.92667005 45.26968053 133.57544176 45.28390909 126.22418356 45.2922433 C117.76046946 45.30199877 109.29701806 45.32827498 100.83339643 45.36874419 C94.27861556 45.39900141 87.72390954 45.41372145 81.16906023 45.41702431 C77.260695 45.41936492 73.35261048 45.42819441 69.44432068 45.45348549 C65.76045284 45.47693856 62.07704706 45.48093125 58.39312363 45.47072411 C56.41541302 45.4700005 54.43772498 45.48897229 52.46011353 45.50878906 C41.11182715 45.44342301 31.91878968 42.31363733 22 37 C21.32839844 36.69964844 20.65679687 36.39929688 19.96484375 36.08984375 C17.77354218 34.8743902 16.62213385 33.63596223 15.0625 31.6875 C13.23674321 29.45244257 11.50296078 27.53846358 9.375 25.5625 C6.80555454 22.79020359 5.43011611 20.18702435 3.89453125 16.76953125 C3.0209993 14.81296895 3.0209993 14.81296895 1 13 C1.375 10.375 1.375 10.375 2 8 C1.01 7.67 0.02 7.34 -1 7 C-0.34 6.67 0.32 6.34 1 6 C0.67 4.02 0.34 2.04 0 0 Z " fill="#1A1A1A" transform="translate(15,196)"/>
<path d="M0 0 C0.495 0.99 0.495 0.99 1 2 C1.66 2 2.32 2 3 2 C0.90574435 6.86204077 -2.47674578 9.39778945 -7 12 C-9.97289829 12.97411814 -12.90215123 13.58408512 -16 14 C-16 14.66 -16 15.32 -16 16 C-19.49848597 16.81911146 -22.99903162 17.62907028 -26.5 18.4375 C-27.48226562 18.66759766 -28.46453125 18.89769531 -29.4765625 19.13476562 C-54.77355198 24.9530732 -77.07844057 21.18060477 -101 12 C-101 11.34 -101 10.68 -101 10 C-101.845625 9.938125 -102.69125 9.87625 -103.5625 9.8125 C-108.01759223 8.7594782 -110.40590917 6.80339085 -114 4 C-113.34 3.67 -112.68 3.34 -112 3 C-109.92803369 3.73178866 -107.8891448 4.55899003 -105.875 5.4375 C-104.77929688 5.91058594 -103.68359375 6.38367188 -102.5546875 6.87109375 C-101.71164063 7.24363281 -100.86859375 7.61617187 -100 8 C-100 8.66 -100 9.32 -100 10 C-99.41992188 10.12117187 -98.83984375 10.24234375 -98.2421875 10.3671875 C-93.71971558 11.33735474 -89.36249034 12.43397783 -85 14 C-85 13.34 -85 12.68 -85 12 C-83.89527344 12.2165625 -82.79054688 12.433125 -81.65234375 12.65625 C-54.0820878 17.72477595 -25.33050065 16.19454191 -1 1 C-0.67 0.67 -0.34 0.34 0 0 Z " fill="#E3E0DC" transform="translate(182,176)"/>
<path d="M0 0 C1.28871665 1.93307497 2.54202443 3.8904687 3.75 5.875 C8.33954814 12.24937241 13.32644533 15.5225544 21 17 C33.89582599 18.17969335 42.5217432 15.7009039 52.65234375 7.7421875 C55 6 55 6 58 5 C58.39832031 5.54269531 58.79664063 6.08539063 59.20703125 6.64453125 C59.73683594 7.35996094 60.26664063 8.07539063 60.8125 8.8125 C61.59560547 9.87404297 61.59560547 9.87404297 62.39453125 10.95703125 C65.15975777 14.76966345 65.15975777 14.76966345 69.359375 16.44921875 C72.96191181 15.83636116 74.57416393 14.26802023 77.25 11.8125 C78.12140625 11.03519531 78.9928125 10.25789062 79.890625 9.45703125 C82.12622427 6.8529721 82.68880286 5.36930749 83 2 C83.99 2.495 83.99 2.495 85 3 C85.48989084 6.42923589 85.76246759 8.95464588 83.65234375 11.84765625 C81.83728061 13.66271939 79.95667355 15.33919442 78 17 C77.46375 17.51175781 76.9275 18.02351563 76.375 18.55078125 C74.20926498 20.55295816 72.55650948 21.89856724 69.62109375 22.43359375 C65.86449707 21.81215972 64.62674913 19.98090362 62.1875 17.125 C61.39730469 16.22007812 60.60710937 15.31515625 59.79296875 14.3828125 C58 12 58 12 58 10 C57.21496094 10.61488281 56.42992187 11.22976562 55.62109375 11.86328125 C44.02321513 20.83275068 34.92823089 24.10942044 20 23 C12.55735519 21.49314442 8.25437679 17.8119475 3.3984375 12.12109375 C2 10 2 10 2 7 C1.34 7 0.68 7 0 7 C0 4.69 0 2.38 0 0 Z " fill="#DEDEDE" transform="translate(85,151)"/>
<path d="M0 0 C4 1.33333333 8 2.66666667 12 4 C12 4.66 12 5.32 12 6 C12.54382324 6.12044678 13.08764648 6.24089355 13.64794922 6.36499023 C17.62395444 7.24689253 21.59864333 8.13391272 25.5703125 9.03515625 C26.32183594 9.20466797 27.07335937 9.37417969 27.84765625 9.54882812 C29.37415948 9.89314232 30.90019885 10.23951909 32.42578125 10.58789062 C54.90329593 15.63662671 84.34917477 15.98587466 105.4375 5.25 C108 4 108 4 111 5 C105.34291279 8.54250703 99.67514287 10.65720029 93.3125 12.625 C92.32499756 12.93058838 91.33749512 13.23617676 90.32006836 13.55102539 C64.63097927 21.34439216 39.61606108 19.19616082 15 9 C14.07832031 8.62488281 13.15664062 8.24976563 12.20703125 7.86328125 C7.78603279 5.98972579 3.85763911 3.86850088 0 1 C0 0.67 0 0.34 0 0 Z " fill="#DEDFDE" transform="translate(69,185)"/>
<path d="M0 0 C1.63001953 0.01353516 1.63001953 0.01353516 3.29296875 0.02734375 C4.12441406 0.03894531 4.95585937 0.05054687 5.8125 0.0625 C5.8125 3.6925 5.8125 7.3225 5.8125 11.0625 C4.79929688 11.17207031 3.78609375 11.28164062 2.7421875 11.39453125 C1.39055539 11.55409893 0.03899657 11.71428833 -1.3125 11.875 C-1.97765625 11.94525391 -2.6428125 12.01550781 -3.328125 12.08789062 C-9.11140901 12.79662641 -13.492816 14.17951778 -17.4375 18.5625 C-18.70996773 20.38031104 -19.956664 22.216246 -21.1875 24.0625 C-21.80420236 13.47577623 -21.80420236 13.47577623 -19.6875 8.625 C-13.95584869 2.75005741 -8.22445386 -0.08843499 0 0 Z " fill="#D1D1D1" transform="translate(132.1875,112.9375)"/>
<path d="M0 0 C2.59624695 1.38213564 4.69767362 2.77532836 6.49609375 5.12109375 C7.22619582 7.87925711 7.18762165 10.40747997 7.05859375 13.24609375 C6.50171875 12.46234375 5.94484375 11.67859375 5.37109375 10.87109375 C2.06372089 7.11677862 -0.35097612 6.42614244 -5.25390625 5.87109375 C-9.85180075 6.33867624 -13.34021498 7.26983805 -16.94140625 10.24609375 C-18.70763133 13.12053849 -19.90114575 16.04318641 -20.94140625 19.24609375 C-27.70993865 19.34762174 -34.24465489 19.27636319 -40.94140625 18.24609375 C-40.61140625 16.26609375 -40.28140625 14.28609375 -39.94140625 12.24609375 C-34.00140625 12.57609375 -28.06140625 12.90609375 -21.94140625 13.24609375 C-20.62140625 10.60609375 -19.30140625 7.96609375 -17.94140625 5.24609375 C-12.72350413 0.24116723 -7.3141694 -2.84031126 0 0 Z " fill="#CCCDCC" transform="translate(130.94140625,77.75390625)"/>
<path d="M0 0 C0.99 1.0209375 0.99 1.0209375 2 2.0625 C5.49468234 5.56725347 9.25130779 8.77221788 13 12 C5.51394239 16.67878601 -5.38689683 15.18333097 -13.8125 15.1875 C-15.14778838 15.1996611 -16.48307488 15.21202931 -17.81835938 15.22460938 C-19.08099609 15.22654297 -20.34363281 15.22847656 -21.64453125 15.23046875 C-22.79284424 15.23457764 -23.94115723 15.23868652 -25.12426758 15.24291992 C-28 15 -28 15 -31 13 C-30.10539062 12.91363281 -29.21078125 12.82726562 -28.2890625 12.73828125 C-16.49944864 11.36827282 -8.64638104 8.08248663 0 0 Z " fill="#F7F2F4" transform="translate(141,167)"/>
<path d="M0 0 C0 0.66 0 1.32 0 2 C0.99 2.33 1.98 2.66 3 3 C3.33 4.65 3.66 6.3 4 8 C0.64703509 8.50828443 -2.70753343 9.00511457 -6.0625 9.5 C-7.47692383 9.71462891 -7.47692383 9.71462891 -8.91992188 9.93359375 C-14.00732242 10.67809139 -18.8587994 11.17113566 -24 11 C-22.85285595 7.1173586 -21.89271758 3.89271758 -19 1 C-12.44058556 -2.53199239 -6.79629738 -3.29517449 0 0 Z " fill="#EDE9ED" transform="translate(134,90)"/>
<path d="M0 0 C3 2 3 2 3.46875 4.03125 C3.57225702 12.20830469 1.04101391 18.35078331 -4.1875 24.625 C-6 26 -6 26 -8 26 C-7.79503906 25.29875 -7.59007812 24.5975 -7.37890625 23.875 C-7.10949219 22.92625 -6.84007812 21.9775 -6.5625 21 C-6.29566406 20.071875 -6.02882812 19.14375 -5.75390625 18.1875 C-4.88508282 14.51413255 -4.46819593 10.7455674 -4 7 C-9.94 6.67 -15.88 6.34 -22 6 C-22 5.34 -22 4.68 -22 4 C-14.88200144 -0.1199785 -8.1570936 -0.97162057 0 0 Z " fill="#FEA011" transform="translate(194,161)"/>
<path d="M0 0 C0.33 0 0.66 0 1 0 C1.08857863 3.2914911 1.1409104 6.58266805 1.1875 9.875 C1.22520508 11.25171875 1.22520508 11.25171875 1.26367188 12.65625 C1.35026811 20.85402679 0.2306901 29.00490784 -5 35.625 C-5.7425 36.60339844 -5.7425 36.60339844 -6.5 37.6015625 C-8 39 -8 39 -11 39 C-11.72727273 25.38383838 -11.72727273 25.38383838 -7 20 C-2.30260752 13.23022848 -0.67156918 8.11184875 0 0 Z " fill="#EDE9E9" transform="translate(197,164)"/>
<path d="M0 0 C0.042721 1.66611905 0.04063832 3.33382885 0 5 C-1.87012897 6.87012897 -5.10903329 6.5291227 -7.625 6.8125 C-15.38792432 7.8696462 -19.90368262 10.1229461 -26 15 C-25.93240615 11.6203073 -25.78179171 8.98111538 -23.62109375 6.26953125 C-16.53264984 -0.15288437 -9.16822186 -0.29842313 0 0 Z " fill="#ECE9EC" transform="translate(138,124)"/>
<path d="M0 0 C0 1.98 0 3.96 0 6 C-1.01320312 6.10957031 -2.02640625 6.21914062 -3.0703125 6.33203125 C-4.42194461 6.49159893 -5.77350343 6.65178833 -7.125 6.8125 C-8.12273437 6.91788086 -8.12273437 6.91788086 -9.140625 7.02539062 C-14.92390901 7.73412641 -19.305316 9.11701778 -23.25 13.5 C-24.52246773 15.31781104 -25.769164 17.153746 -27 19 C-27.82505069 12.28173012 -27.82505069 12.28173012 -25.72265625 9.015625 C-18.63454727 1.49355016 -10.03524161 0 0 0 Z " fill="#DCDDDC" transform="translate(138,118)"/>
<path d="M0 0 C1.26457031 0.08378906 2.52914062 0.16757813 3.83203125 0.25390625 C5.4921684 0.35707862 7.15232575 0.45992631 8.8125 0.5625 C10.06256836 0.64661133 10.06256836 0.64661133 11.33789062 0.73242188 C12.14033203 0.78076172 12.94277344 0.82910156 13.76953125 0.87890625 C14.87711792 0.94960327 14.87711792 0.94960327 16.00708008 1.02172852 C18.21188792 1.09929638 18.21188792 1.09929638 21 0 C20.34 2.31 19.68 4.62 19 7 C12.2314676 7.10152799 5.69675136 7.03026944 -1 6 C-0.67 4.02 -0.34 2.04 0 0 Z " fill="#D3D3D3" transform="translate(91,90)"/>
<path d="M0 0 C-0.92039063 0.44472656 -0.92039063 0.44472656 -1.859375 0.8984375 C-4.11432169 2.05882978 -6.00928004 3.43586289 -8 5 C-7.01 5.66 -6.02 6.32 -5 7 C-7.22582389 7.84334329 -9.45496026 8.67478551 -11.6875 9.5 C-12.31333984 9.73847656 -12.93917969 9.97695312 -13.58398438 10.22265625 C-17.18192299 11.5412725 -20.16520253 12.29329235 -24 12 C-22.88089505 10.84592302 -21.75427326 9.69863714 -20.6015625 8.578125 C-19.46018682 7.45345238 -18.35399028 6.29260475 -17.2734375 5.109375 C-11.83046576 -0.40079393 -7.5702432 -0.87670096 0 0 Z " fill="#F6F1F1" transform="translate(181,167)"/>
<path d="M0 0 C0.33 0 0.66 0 1 0 C2.125 7.625 2.125 7.625 1 11 C1.56847656 10.97679688 2.13695313 10.95359375 2.72265625 10.9296875 C7.92558648 10.80808312 12.07312243 11.32276508 17 13 C14.84994915 15.36505594 13.06292682 17.00661833 10 18 C6.09807891 17.93794161 2.87191737 17.87191737 0 15 C-0.14497985 12.41935871 -0.18677545 9.95056116 -0.125 7.375 C-0.11597656 6.66859375 -0.10695313 5.9621875 -0.09765625 5.234375 C-0.07407603 3.48943902 -0.03820461 1.74467705 0 0 Z " fill="#EBE8EB" transform="translate(87,90)"/>
<path d="M0 0 C0.33 0 0.66 0 1 0 C1.4946164 7.54290017 -0.09382609 13.058915 -3 20 C-3.66 20 -4.32 20 -5 20 C-5.33 20.66 -5.66 21.32 -6 22 C-7.72386468 13.51722036 -7.72386468 13.51722036 -6.0234375 9.953125 C-5.14270605 8.78911736 -4.22857975 7.64954348 -3.28125 6.5390625 C-1.62300697 4.54714862 -0.81412009 2.44236027 0 0 Z " fill="#E0DEDB" transform="translate(196,173)"/>
<path d="M0 0 C0.33 0.66 0.66 1.32 1 2 C1.66 2 2.32 2 3 2 C1.125 5.875 1.125 5.875 0 7 C-1.68608966 7.07205511 -3.37500659 7.08386068 -5.0625 7.0625 C-5.98160156 7.05347656 -6.90070313 7.04445312 -7.84765625 7.03515625 C-8.55792969 7.02355469 -9.26820313 7.01195312 -10 7 C-6.74799207 4.53271572 -3.40873516 2.24666636 0 0 Z " fill="#E0DED8" transform="translate(182,176)"/>
<path d="M0 0 C0.33 0.66 0.66 1.32 1 2 C1.66 2 2.32 2 3 2 C3 2.66 3 3.32 3 4 C2.34 4.66 1.68 5.32 1 6 C0.62633887 7.99285937 0.29259485 9.99363529 0 12 C-0.33 12.66 -0.66 13.32 -1 14 C-3.0625 14.625 -3.0625 14.625 -5 15 C-3.33333333 10 -1.66666667 5 0 0 Z " fill="#202020" transform="translate(240,196)"/>
<path d="M0 0 C4.72224516 1.53472968 9.35855331 3.23945126 14 5 C13.01 5.66 12.02 6.32 11 7 C6.8312737 5.87331722 3.47707721 3.50673008 0 1 C0 0.67 0 0.34 0 0 Z " fill="#E5E4E5" transform="translate(68,179)"/>
<path d="M0 0 C0.66 0.33 1.32 0.66 2 1 C0.90931332 4.77545388 0.0916909 7.47043472 -3 10 C-3.75 8.375 -3.75 8.375 -4 6 C-2.0625 2.75 -2.0625 2.75 0 0 Z " fill="#D8D4CE" transform="translate(194,178)"/>
<path d="M0 0 C1.43931117 0.45261358 2.87638999 0.91232979 4.3125 1.375 C5.11300781 1.63023437 5.91351563 1.88546875 6.73828125 2.1484375 C9 3 9 3 12 5 C9.9375 5.8125 9.9375 5.8125 7 6 C4.42776878 4.62353742 2.16251431 2.95685733 0 1 C0 0.67 0 0.34 0 0 Z " fill="#E5E4E5" transform="translate(69,185)"/>
<path d="M0 0 C-6.75 4 -6.75 4 -9 4 C-8 1 -8 1 -5.625 -0.25 C-3 -1 -3 -1 0 0 Z " fill="#E5E4E5" transform="translate(180,190)"/>
</svg>
